<svg width="33" height="32" viewBox="0 0 33 32" fill="none" xmlns="http://www.w3.org/2000/svg">
<mask id="mask0_1180_985" style="mask-type:alpha" maskUnits="userSpaceOnUse" x="0" y="0" width="33" height="32">
<rect x="0.5" width="32" height="32" fill="#D9D9D9"/>
</mask>
<g mask="url(#mask0_1180_985)">
<path d="M12 28C9.91111 28 8.13889 27.2722 6.68333 25.8167C5.22778 24.3611 4.5 22.5889 4.5 20.5C4.5 19.5 4.68889 18.5444 5.06667 17.6333C5.44444 16.7222 5.98889 15.9111 6.7 15.2L15.7 6.2C16.4111 5.48889 17.2222 4.94444 18.1333 4.56667C19.0444 4.18889 20 4 21 4C23.0889 4 24.8611 4.72778 26.3167 6.18333C27.7722 7.63889 28.5 9.41111 28.5 11.5C28.5 12.5 28.3111 13.4556 27.9333 14.3667C27.5556 15.2778 27.0111 16.0889 26.3 16.8L17.3 25.8C16.5889 26.5111 15.7778 27.0556 14.8667 27.4333C13.9556 27.8111 13 28 12 28ZM20.8667 18.4667L24.4333 14.9333C24.8778 14.4889 25.2222 13.9667 25.4667 13.3667C25.7111 12.7667 25.8333 12.1444 25.8333 11.5C25.8333 10.1667 25.3611 9.02778 24.4167 8.08333C23.4722 7.13889 22.3333 6.66667 21 6.66667C20.3556 6.66667 19.7333 6.78889 19.1333 7.03333C18.5333 7.27778 18.0111 7.62222 17.5667 8.06667L14.0333 11.6333L20.8667 18.4667ZM12 25.3333C12.6444 25.3333 13.2667 25.2111 13.8667 24.9667C14.4667 24.7222 14.9889 24.3778 15.4333 23.9333L18.9667 20.3667L12.1333 13.5333L8.56667 17.0667C8.12222 17.5111 7.77778 18.0333 7.53333 18.6333C7.28889 19.2333 7.16667 19.8556 7.16667 20.5C7.16667 21.8333 7.63889 22.9722 8.58333 23.9167C9.52778 24.8611 10.6667 25.3333 12 25.3333Z" fill="#1B8751"/>
</g>
</svg>
