<svg width="33" height="32" viewBox="0 0 33 32" fill="none" xmlns="http://www.w3.org/2000/svg">
<mask id="mask0_1180_995" style="mask-type:alpha" maskUnits="userSpaceOnUse" x="0" y="0" width="33" height="32">
<rect x="0.5" width="32" height="32" fill="#D9D9D9"/>
</mask>
<g mask="url(#mask0_1180_995)">
<path d="M5.83366 26.6663C5.10033 26.6663 4.47255 26.4052 3.95033 25.883C3.4281 25.3608 3.16699 24.733 3.16699 23.9997V7.99967C3.16699 7.26634 3.4281 6.63856 3.95033 6.11634C4.47255 5.59412 5.10033 5.33301 5.83366 5.33301H27.167C27.9003 5.33301 28.5281 5.59412 29.0503 6.11634C29.5725 6.63856 29.8337 7.26634 29.8337 7.99967V23.9997C29.8337 24.733 29.5725 25.3608 29.0503 25.883C28.5281 26.4052 27.9003 26.6663 27.167 26.6663H5.83366ZM16.5003 17.333L5.83366 10.6663V23.9997H27.167V10.6663L16.5003 17.333ZM16.5003 14.6663L27.167 7.99967H5.83366L16.5003 14.6663ZM5.83366 10.6663V7.99967V23.9997V10.6663Z" fill="#1B8751"/>
</g>
</svg>
