<svg width="130" height="32" viewBox="0 0 130 32" fill="none" xmlns="http://www.w3.org/2000/svg">
<g clip-path="url(#clip0_1_1699)">
<path d="M63.5736 31.0222H59.3875L57.074 21.6327H61.2614L63.5736 31.0222ZM44.2985 21.6327H39.9003L35.2151 31.0222H39.6132L44.2985 21.6327ZM66.2609 19.7566H52.8737L50.8369 31.0222H46.6469L48.6863 19.7566H36.119L36.1578 19.5466L36.7979 15.998H49.351L51.3878 12.2445H41.8117L45.8878 4.73247H38.8347L39.5162 0.979004H66.8234L66.1432 4.73247H59.8621L53.7479 15.998H61.1437L59.2944 8.4885H63.4831L66.2596 19.7566H66.2609ZM53.4259 8.4885L55.4665 4.73247H50.0752L48.0384 8.4885H53.4259Z" fill="white"/>
<path d="M11.4862 6.6112L10.2951 13.1814H14.2743L13.5941 16.9374H9.61363L8.42777 23.5101H12.4056L11.7254 27.2662H0L0.678929 23.5101H4.6581L5.84784 16.9374H1.86738L2.54501 13.1814H6.52289L7.71263 6.6112H3.73475L4.41498 2.85516H16.143L15.4615 6.6112H11.4849H11.4862ZM35.7453 0.977783L32.348 19.7554H25.229L24.8902 21.6315H32.0092L31.3303 25.3875H24.21L23.8686 27.2649H30.9928L30.3126 31.0209H12.5104L13.1919 27.2649H20.311L20.6511 25.3875H13.5307L14.2109 21.6315H21.3313L21.6701 19.7554H14.5498L17.9457 0.977783H35.7466H35.7453ZM27.946 4.73124L27.2658 8.48728H30.6177L31.298 4.73124H27.946ZM20.3549 8.48728H23.7082L24.3858 4.73124H21.0364L20.3549 8.48728ZM18.9971 15.9968H22.3477L23.0267 12.2433H19.6773L18.9971 15.9968ZM29.2573 15.9968L29.9375 12.2433H26.5856L25.9066 15.9968H29.256H29.2573Z" fill="white"/>
<path d="M123.195 8.48728H119.424L120.782 0.977783H124.552L123.195 8.48728ZM130 0.977783H126.229L124.872 8.48728H128.637L130 0.977783ZM102.216 27.2662L104.251 15.9981H121.853L122.529 12.2446H104.931L106.968 0.977783H102.782L97.3455 31.0222H124.602L125.28 27.2662H102.214H102.216Z" fill="white"/>
<path d="M97.2407 8.48728H85.3705L86.7309 0.977783H82.5409L81.1831 8.48728H69.177L68.4981 12.2433H80.1705L70.747 31.0222H75.1464L84.57 12.2433H96.5605L97.2407 8.48728Z" fill="white"/>
</g>
<defs>
<clipPath id="clip0_1_1699">
<rect width="130" height="30.0444" fill="white" transform="translate(0 0.977783)"/>
</clipPath>
</defs>
</svg>
